<?xml version="1.0" encoding="UTF-8"?>
<!DOCTYPE svg PUBLIC "-//W3C//DTD SVG 1.1//EN" "http://www.w3.org/Graphics/SVG/1.1/DTD/svg11.dtd">
<svg xmlns="http://www.w3.org/2000/svg" version="1.1" width="410px" height="318px" style="shape-rendering:geometricPrecision; text-rendering:geometricPrecision; image-rendering:optimizeQuality; fill-rule:evenodd; clip-rule:evenodd" xmlns:xlink="http://www.w3.org/1999/xlink">
<g><path style="opacity:1" fill="#d6dbd8" d="M 17.5,-0.5 C 30.8333,-0.5 44.1667,-0.5 57.5,-0.5C 57.5,70.1667 57.5,140.833 57.5,211.5C 80.5,211.5 103.5,211.5 126.5,211.5C 126.5,222.833 126.5,234.167 126.5,245.5C 90.1667,245.5 53.8333,245.5 17.5,245.5C 17.5,163.5 17.5,81.5 17.5,-0.5 Z"/></g>
<g><path style="opacity:1" fill="#d6dbd8" d="M 117.5,49.5 C 126.833,49.5 136.167,49.5 145.5,49.5C 149.619,75.6315 142.785,98.2982 125,117.5C 119.033,114.44 113.533,110.774 108.5,106.5C 112.629,98.6125 115.463,90.2792 117,81.5C 117.5,70.8385 117.667,60.1719 117.5,49.5 Z"/></g>
<g><path style="opacity:1" fill="#d6dbd8" d="M 174.5,59.5 C 187.833,59.5 201.167,59.5 214.5,59.5C 214.5,121.5 214.5,183.5 214.5,245.5C 201.167,245.5 187.833,245.5 174.5,245.5C 174.5,183.5 174.5,121.5 174.5,59.5 Z"/></g>
<g><path style="opacity:1" fill="#d6dbd8" d="M 294.5,59.5 C 307.167,59.5 319.833,59.5 332.5,59.5C 352.333,121.498 372.666,183.332 393.5,245C 379.167,245.667 364.833,245.667 350.5,245C 347.073,234.219 343.74,223.385 340.5,212.5C 322.167,211.167 303.833,211.167 285.5,212.5C 282.028,223.388 279.028,234.388 276.5,245.5C 262.167,245.5 247.833,245.5 233.5,245.5C 253.436,183.36 273.769,121.36 294.5,59.5 Z M 312.5,111.5 C 318.946,132.942 324.946,154.609 330.5,176.5C 318.833,176.5 307.167,176.5 295.5,176.5C 301.324,154.87 306.991,133.203 312.5,111.5 Z"/></g>
<g><path style="opacity:1" fill="#d6dbd8" d="M 179.5,263.5 C 182.5,263.5 185.5,263.5 188.5,263.5C 188.334,268.844 188.501,274.177 189,279.5C 194.441,275.074 199.108,275.741 203,281.5C 204.41,290.084 204.91,298.75 204.5,307.5C 201.5,307.5 198.5,307.5 195.5,307.5C 195.666,299.826 195.5,292.159 195,284.5C 193,283.167 191,283.167 189,284.5C 188.5,292.159 188.334,299.826 188.5,307.5C 185.5,307.5 182.5,307.5 179.5,307.5C 179.5,292.833 179.5,278.167 179.5,263.5 Z"/></g>
<g><path style="opacity:1" fill="#d6dbd8" d="M 212.5,264.5 C 218.845,264.542 220.512,267.209 217.5,272.5C 213.511,274.337 210.844,273.17 209.5,269C 209.957,267.06 210.957,265.56 212.5,264.5 Z"/></g>
<g><path style="opacity:1" fill="#d6dbd8" d="M 226.5,268.5 C 229.167,268.5 231.833,268.5 234.5,268.5C 234.5,271.167 234.5,273.833 234.5,276.5C 236.167,276.5 237.833,276.5 239.5,276.5C 239.5,278.833 239.5,281.167 239.5,283.5C 237.833,283.5 236.167,283.5 234.5,283.5C 234.334,288.844 234.501,294.177 235,299.5C 236.049,301.107 237.549,301.773 239.5,301.5C 240.578,308.065 237.911,310.232 231.5,308C 230.069,307.535 228.903,306.701 228,305.5C 226.571,298.281 226.071,290.947 226.5,283.5C 225.167,283.5 223.833,283.5 222.5,283.5C 222.5,281.167 222.5,278.833 222.5,276.5C 223.833,276.5 225.167,276.5 226.5,276.5C 226.5,273.833 226.5,271.167 226.5,268.5 Z"/></g>
<g><path style="opacity:1" fill="#d6dbd8" d="M 301.5,268.5 C 304.167,268.5 306.833,268.5 309.5,268.5C 309.5,271.167 309.5,273.833 309.5,276.5C 311.167,276.5 312.833,276.5 314.5,276.5C 314.5,278.833 314.5,281.167 314.5,283.5C 312.833,283.5 311.167,283.5 309.5,283.5C 309.334,288.844 309.501,294.177 310,299.5C 311.049,301.107 312.549,301.773 314.5,301.5C 315.578,308.065 312.911,310.232 306.5,308C 305.069,307.535 303.903,306.701 303,305.5C 301.571,298.281 301.071,290.947 301.5,283.5C 300.167,283.5 298.833,283.5 297.5,283.5C 297.5,281.167 297.5,278.833 297.5,276.5C 298.833,276.5 300.167,276.5 301.5,276.5C 301.5,273.833 301.5,271.167 301.5,268.5 Z"/></g>
<g><path style="opacity:1" fill="#d6dbd8" d="M 27.5,276.5 C 39.9436,276.622 45.2769,282.956 43.5,295.5C 37.8236,295.334 32.1569,295.501 26.5,296C 29.5564,302.211 33.7231,303.045 39,298.5C 44.5699,302.213 44.4032,305.046 38.5,307C 29.7189,310.187 23.2189,307.687 19,299.5C 17.8732,293.245 18.5399,287.245 21,281.5C 22.8049,279.174 24.9716,277.508 27.5,276.5 Z M 29.5,283.5 C 33.6971,283.194 35.6971,285.194 35.5,289.5C 32.4816,289.665 29.4816,289.498 26.5,289C 27.2228,286.982 28.2228,285.148 29.5,283.5 Z"/></g>
<g><path style="opacity:1" fill="#d6dbd8" d="M 47.5,276.5 C 50.1667,276.5 52.8333,276.5 55.5,276.5C 55.3505,277.552 55.5172,278.552 56,279.5C 61.3556,275.229 66.3556,275.563 71,280.5C 72.3813,289.432 72.8813,298.432 72.5,307.5C 69.5,307.5 66.5,307.5 63.5,307.5C 63.6664,299.826 63.4997,292.159 63,284.5C 61,283.167 59,283.167 57,284.5C 56.5003,292.159 56.3336,299.826 56.5,307.5C 53.5,307.5 50.5,307.5 47.5,307.5C 47.5,297.167 47.5,286.833 47.5,276.5 Z"/></g>
<g><path style="opacity:1" fill="#d6dbd8" d="M 112.5,276.5 C 117.677,275.703 122.177,277.036 126,280.5C 127.228,289.423 128.062,298.423 128.5,307.5C 124.993,308.006 121.826,307.34 119,305.5C 111.116,310.644 105.949,308.644 103.5,299.5C 103.721,294.204 106.387,291.037 111.5,290C 114.146,289.503 116.813,289.336 119.5,289.5C 119.276,283.394 116.943,282.227 112.5,286C 109.854,286.497 107.187,286.664 104.5,286.5C 105.357,281.65 108.024,278.317 112.5,276.5 Z M 113.5,295.5 C 115.5,295.5 117.5,295.5 119.5,295.5C 119.695,300.486 117.528,302.152 113,300.5C 112.36,298.735 112.527,297.068 113.5,295.5 Z"/></g>
<g><path style="opacity:1" fill="#d6dbd8" d="M 133.5,276.5 C 136.167,276.5 138.833,276.5 141.5,276.5C 141.443,280.133 142.443,280.3 144.5,277C 146.134,276.506 147.801,276.34 149.5,276.5C 149.5,279.5 149.5,282.5 149.5,285.5C 146.635,285.055 144.135,285.722 142,287.5C 141.5,294.158 141.334,300.825 141.5,307.5C 138.833,307.5 136.167,307.5 133.5,307.5C 133.5,297.167 133.5,286.833 133.5,276.5 Z"/></g>
<g><path style="opacity:1" fill="#d6dbd8" d="M 160.5,276.5 C 169.963,275.214 175.296,279.214 176.5,288.5C 173.753,288.813 171.086,288.48 168.5,287.5C 166.447,282.688 163.947,282.354 161,286.5C 159.99,291.558 160.49,296.391 162.5,301C 165.814,302.165 167.814,300.998 168.5,297.5C 171.086,296.52 173.753,296.187 176.5,296.5C 175.303,305.942 169.969,309.775 160.5,308C 153.273,303.951 150.44,297.784 152,289.5C 152.683,283.67 155.516,279.337 160.5,276.5 Z"/></g>
<g><path style="opacity:1" fill="#d6dbd8" d="M 210.5,276.5 C 213.167,276.5 215.833,276.5 218.5,276.5C 218.5,286.833 218.5,297.167 218.5,307.5C 215.833,307.5 213.167,307.5 210.5,307.5C 210.5,297.167 210.5,286.833 210.5,276.5 Z"/></g>
<g><path style="opacity:1" fill="#d6dbd8" d="M 252.5,276.5 C 264.944,276.622 270.277,282.956 268.5,295.5C 262.824,295.334 257.157,295.501 251.5,296C 254.556,302.211 258.723,303.045 264,298.5C 269.57,302.213 269.403,305.046 263.5,307C 254.719,310.187 248.219,307.687 244,299.5C 242.873,293.245 243.54,287.245 246,281.5C 247.805,279.174 249.972,277.508 252.5,276.5 Z M 254.5,283.5 C 258.697,283.194 260.697,285.194 260.5,289.5C 257.482,289.665 254.482,289.498 251.5,289C 252.223,286.982 253.223,285.148 254.5,283.5 Z"/></g>
<g><path style="opacity:1" fill="#d6dbd8" d="M 280.5,276.5 C 289.963,275.214 295.296,279.214 296.5,288.5C 293.753,288.813 291.086,288.48 288.5,287.5C 286.447,282.688 283.947,282.354 281,286.5C 279.99,291.558 280.49,296.391 282.5,301C 285.814,302.165 287.814,300.998 288.5,297.5C 291.086,296.52 293.753,296.187 296.5,296.5C 295.303,305.942 289.969,309.775 280.5,308C 273.273,303.951 270.44,297.784 272,289.5C 272.683,283.67 275.516,279.337 280.5,276.5 Z"/></g>
<g><path style="opacity:1" fill="#d6dbd8" d="M 318.5,276.5 C 321.5,276.5 324.5,276.5 327.5,276.5C 327.334,284.507 327.5,292.507 328,300.5C 329.796,301.767 331.629,301.767 333.5,300.5C 334.498,292.528 334.831,284.528 334.5,276.5C 337.5,276.5 340.5,276.5 343.5,276.5C 343.5,286.833 343.5,297.167 343.5,307.5C 340.833,307.5 338.167,307.5 335.5,307.5C 335.557,303.867 334.557,303.7 332.5,307C 327.676,309.446 323.509,308.613 320,304.5C 318.583,295.248 318.083,285.915 318.5,276.5 Z"/></g>
<g><path style="opacity:1" fill="#d6dbd8" d="M 349.5,276.5 C 352.167,276.5 354.833,276.5 357.5,276.5C 357.443,280.133 358.443,280.3 360.5,277C 362.134,276.506 363.801,276.34 365.5,276.5C 365.5,279.5 365.5,282.5 365.5,285.5C 362.635,285.055 360.135,285.722 358,287.5C 357.5,294.158 357.334,300.825 357.5,307.5C 354.833,307.5 352.167,307.5 349.5,307.5C 349.5,297.167 349.5,286.833 349.5,276.5 Z"/></g>
<g><path style="opacity:1" fill="#d6dbd8" d="M 377.5,276.5 C 389.944,276.622 395.277,282.956 393.5,295.5C 387.824,295.334 382.157,295.501 376.5,296C 379.556,302.211 383.723,303.045 389,298.5C 394.57,302.213 394.403,305.046 388.5,307C 379.719,310.187 373.219,307.687 369,299.5C 367.873,293.245 368.54,287.245 371,281.5C 372.805,279.174 374.972,277.508 377.5,276.5 Z M 379.5,283.5 C 383.697,283.194 385.697,285.194 385.5,289.5C 382.482,289.665 379.482,289.498 376.5,289C 377.223,286.982 378.223,285.148 379.5,283.5 Z"/></g>
</svg>
